<mxfile modified="2024-06-24T21:41:18.627Z" host="app.diagrams.net" agent="Mozilla/5.0 (Windows NT 10.0; Win64; x64) AppleWebKit/537.36 (KHTML, like Gecko) Chrome/126.0.0.0 Safari/537.36" etag="oKS2vOKFTTVFWsS54iYT" version="24.6.2" type="github">
  <diagram id="Ht1M8jgEwFfnCIfOTk4-" name="Page-1">
    <mxGraphModel dx="1422" dy="762" grid="1" gridSize="10" guides="1" tooltips="1" connect="1" arrows="1" fold="1" page="1" pageScale="1" pageWidth="1169" pageHeight="827" math="0" shadow="0">
      <root>
        <mxCell id="0" />
        <mxCell id="1" parent="0" />
        <mxCell id="UEzPUAAOIrF-is8g5C7q-107" value="" style="rounded=0;whiteSpace=wrap;html=1;labelBackgroundColor=none;fillColor=none;dashed=1;container=1;pointerEvents=0;collapsible=0;recursiveResize=0;" parent="1" vertex="1">
          <mxGeometry x="340" y="290" width="480" height="430" as="geometry" />
        </mxCell>
        <mxCell id="UEzPUAAOIrF-is8g5C7q-74" value="AWS Cloud" style="points=[[0,0],[0.25,0],[0.5,0],[0.75,0],[1,0],[1,0.25],[1,0.5],[1,0.75],[1,1],[0.75,1],[0.5,1],[0.25,1],[0,1],[0,0.75],[0,0.5],[0,0.25]];outlineConnect=0;gradientColor=none;html=1;whiteSpace=wrap;fontSize=12;fontStyle=0;shape=mxgraph.aws4.group;grIcon=mxgraph.aws4.group_aws_cloud_alt;strokeColor=#232F3E;fillColor=none;verticalAlign=top;align=left;spacingLeft=30;fontColor=#232F3E;dashed=0;labelBackgroundColor=#ffffff;container=1;pointerEvents=0;collapsible=0;recursiveResize=0;" parent="1" vertex="1">
          <mxGeometry x="50" y="80" width="780" height="650" as="geometry" />
        </mxCell>
        <mxCell id="UEzPUAAOIrF-is8g5C7q-75" value="AWS Cloud" style="points=[[0,0],[0.25,0],[0.5,0],[0.75,0],[1,0],[1,0.25],[1,0.5],[1,0.75],[1,1],[0.75,1],[0.5,1],[0.25,1],[0,1],[0,0.75],[0,0.5],[0,0.25]];outlineConnect=0;gradientColor=none;html=1;whiteSpace=wrap;fontSize=12;fontStyle=0;shape=mxgraph.aws4.group;grIcon=mxgraph.aws4.group_aws_cloud_alt;strokeColor=#232F3E;fillColor=none;verticalAlign=top;align=left;spacingLeft=30;fontColor=#232F3E;dashed=0;labelBackgroundColor=#ffffff;container=1;pointerEvents=0;collapsible=0;recursiveResize=0;" parent="1" vertex="1">
          <mxGeometry x="850" y="80" width="270" height="650" as="geometry" />
        </mxCell>
        
        <mxCell id="vpc" value="VPC Configurada" style="shape=ellipse;fillColor=#E6F2FF;strokeColor=#1A73E8;strokeWidth=2;fontColor=#000000;" parent="1" vertex="1">
          <mxGeometry x="150" y="150" width="120" height="60" as="geometry" />
        </mxCell>
        <mxCell id="subnet" value="Subredes Criadas" style="shape=ellipse;fillColor=#E6F2FF;strokeColor=#1A73E8;strokeWidth=2;fontColor=#000000;" parent="1" vertex="1">
          <mxGeometry x="150" y="250" width="120" height="60" as="geometry" />
        </mxCell>
        <mxCell id="igw" value="Internet Gateway Anexado" style="shape=ellipse;fillColor=#E6F2FF;strokeColor=#1A73E8;strokeWidth=2;fontColor=#000000;" parent="1" vertex="1">
          <mxGeometry x="150" y="350" width="120" height="60" as="geometry" />
        </mxCell>
        <mxCell id="routing" value="Tabelas de Roteamento Configuradas" style="shape=ellipse;fillColor=#E6F2FF;strokeColor=#1A73E8;strokeWidth=2;fontColor=#000000;" parent="1" vertex="1">
          <mxGeometry x="150" y="450" width="180" height="60" as="geometry" />
        </mxCell>
        <mxCell id="nat" value="NAT Gateway Criado" style="shape=ellipse;fillColor=#E6F2FF;strokeColor=#1A73E8;strokeWidth=2;fontColor=#000000;" parent="1" vertex="1">
          <mxGeometry x="150" y="550" width="140" height="60" as="geometry" />
        </mxCell>
        <mxCell id="sg" value="Grupos de Segurança Configurados" style="shape=ellipse;fillColor=#E6F2FF;strokeColor=#1A73E8;strokeWidth=2;fontColor=#000000;" parent="1" vertex="1">
          <mxGeometry x="150" y="650" width="180" height="60" as="geometry" />
        </mxCell>
        <mxCell id="webserver" value="Instância EC2 Servidor Web" style="shape=ellipse;fillColor=#E6F2FF;strokeColor=#1A73E8;strokeWidth=2;fontColor=#000000;" parent="1" vertex="1">
          <mxGeometry x="400" y="150" width="160" height="60" as="geometry" />
        </mxCell>
        <mxCell id="appserver" value="Instância EC2 Servidor de Aplicação" style="shape=ellipse;fillColor=#E6F2FF;strokeColor=#1A73E8;strokeWidth=2;fontColor=#000000;" parent="1" vertex="1">
          <mxGeometry x="400" y="250" width="180" height="60" as="geometry" />
        </mxCell>
        <mxCell id="ebsweb" value="Volume EBS Anexado" style="shape=ellipse;fillColor=#E6F2FF;strokeColor=#1A73E8;strokeWidth=2;fontColor=#000000;" parent="1" vertex="1">
          <mxGeometry x="400" y="350" width="140" height="60" as="geometry" />
        </mxCell>
        <mxCell id="ebsapp" value="Volume EBS Anexado" style="shape=ellipse;fillColor=#E6F2FF;strokeColor=#1A73E8;strokeWidth=2;fontColor=#000000;" parent="1" vertex="1">
          <mxGeometry x="400" y="450" width="140" height="60" as="geometry" />
        </mxCell>
        <mxCell id="rds" value="Banco de Dados RDS Criado" style="shape=ellipse;fillColor=#E6F2FF;strokeColor=#1A73E8;strokeWidth=2;fontColor=#000000;" parent="1" vertex="1">
          <mxGeometry x="400" y="550" width="160" height="60" as="geometry" />
        </mxCell>
        <mxCell id="multiAZ" value="RDS Configurado Multi-AZ" style="shape=ellipse;fillColor=#E6F2FF;strokeColor=#1A73E8;strokeWidth=2;fontColor=#000000;" parent="1" vertex="1">
          <mxGeometry x="400" y="650" width="160" height="60" as="geometry" />
        </mxCell>
        <mxCell id="lambda" value="Função Lambda Criada" style="shape=ellipse;fillColor=#E6F2FF;strokeColor=#1A73E8;strokeWidth=2;fontColor=#000000;" parent="1" vertex="1">
          <mxGeometry x="650" y="150" width="160" height="60" as="geometry" />
        </mxCell>
        <mxCell id="s3trigger" value="Gatilho S3 Configurado" style="shape=ellipse;fillColor=#E6F2FF;strokeColor=#1A73E8;strokeWidth=2;fontColor=#000000;" parent="1" vertex="1">
          <mxGeometry x="650" y="250" width="160" height="60" as="geometry" />
        </mxCell>
        <mxCell id="email" value="Email de Confirmação Enviado" style="shape=ellipse;fillColor=#E6F2FF;strokeColor=#1A73E8;strokeWidth=2;fontColor=#000000;" parent="1" vertex="1">
          <mxGeometry x="650" y="350" width="160" height="60" as="geometry" />
        </mxCell>

        <mxCell id="edge1" value="" style="edgeStyle=orthogonalEdgeStyle;rounded=0;orthogonalLoop=1;jettySize=auto;html=1;endArrow=open;endFill=0;strokeWidth=2;" parent="1" source="vpc" target="subnet" edge="1">
          <mxGeometry relative="1" as="geometry" />
        </mxCell>
        <mxCell id="edge2" value="" style="edgeStyle=orthogonalEdgeStyle;rounded=0;orthogonalLoop=1;jettySize=auto;html=1;endArrow=open;endFill=0;strokeWidth=2;" parent="1" source="subnet" target="igw" edge="1">
          <mxGeometry relative="1" as="geometry" />
        </mxCell>
        <mxCell id="edge3" value="" style="edgeStyle=orthogonalEdgeStyle;rounded=0;orthogonalLoop=1;jettySize=auto;html=1;endArrow=open;endFill=0;strokeWidth=2;" parent="1" source="igw" target="routing" edge="1">
          <mxGeometry relative="1" as="geometry" />
        </mxCell>
        <mxCell id="edge4" value="" style="edgeStyle=orthogonalEdgeStyle;rounded=0;orthogonalLoop=1;jettySize=auto;html=1;endArrow=open;endFill=0;strokeWidth=2;" parent="1" source="routing" target="nat" edge="1">
          <mxGeometry relative="1" as="geometry" />
        </mxCell>
        <mxCell id="edge5" value="" style="edgeStyle=orthogonalEdgeStyle;rounded=0;orthogonalLoop=1;jettySize=auto;html=1;endArrow=open;endFill=0;strokeWidth=2;" parent="1" source="nat" target="sg" edge="1">
          <mxGeometry relative="1" as="geometry" />
        </mxCell>
        <mxCell id="edge6" value="" style="edgeStyle=orthogonalEdgeStyle;rounded=0;orthogonalLoop=1;jettySize=auto;html=1;endArrow=open;endFill=0;strokeWidth=2;" parent="1" source="sg" target="webserver" edge="1">
          <mxGeometry relative="1" as="geometry" />
        </mxCell>
        <mxCell id="edge7" value="" style="edgeStyle=orthogonalEdgeStyle;rounded=0;orthogonalLoop=1;jettySize=auto;html=1;endArrow=open;endFill=0;strokeWidth=2;" parent="1" source="sg" target="appserver" edge="1">
          <mxGeometry relative="1" as="geometry" />
        </mxCell>
        <mxCell id="edge8" value="" style="edgeStyle=orthogonalEdgeStyle;rounded=0;orthogonalLoop=1;jettySize=auto;html=1;endArrow=open;endFill=0;strokeWidth=2;" parent="1" source="webserver" target="ebsweb" edge="1">
          <mxGeometry relative="1" as="geometry" />
        </mxCell>
        <mxCell id="edge9" value="" style="edgeStyle=orthogonalEdgeStyle;rounded=0;orthogonalLoop=1;jettySize=auto;html=1;endArrow=open;endFill=0;strokeWidth=2;" parent="1" source="appserver" target="ebsapp" edge="1">
          <mxGeometry relative="1" as="geometry" />
        </mxCell>
        <mxCell id="edge10" value="" style="edgeStyle=orthogonalEdgeStyle;rounded=0;orthogonalLoop=1;jettySize=auto;html=1;endArrow=open;endFill=0;strokeWidth=2;" parent="1" source="sg" target="rds" edge="1">
          <mxGeometry relative="1" as="geometry" />
        </mxCell>
        <mxCell id="edge11" value="" style="edgeStyle=orthogonalEdgeStyle;rounded=0;orthogonalLoop=1;jettySize=auto;html=1;endArrow=open;endFill=0;strokeWidth=2;" parent="1" source="rds" target="multiAZ" edge="1">
          <mxGeometry relative="1" as="geometry" />
        </mxCell>
        <mxCell id="edge12" value="" style="edgeStyle=orthogonalEdgeStyle;rounded=0;orthogonalLoop=1;jettySize=auto;html=1;endArrow=open;endFill=0;strokeWidth=2;" parent="1" source="sg" target="lambda" edge="1">
          <mxGeometry relative="1" as="geometry" />
        </mxCell>
        <mxCell id="edge13" value="" style="edgeStyle=orthogonalEdgeStyle;rounded=0;orthogonalLoop=1;jettySize=auto;html=1;endArrow=open;endFill=0;strokeWidth=2;" parent="1" source="lambda" target="s3trigger" edge="1">
          <mxGeometry relative="1" as="geometry" />
        </mxCell>
        <mxCell id="edge14" value="" style="edgeStyle=orthogonalEdgeStyle;rounded=0;orthogonalLoop=1;jettySize=auto;html=1;endArrow=open;endFill=0;strokeWidth=2;" parent="1" source="s3trigger" target="email" edge="1">
          <mxGeometry relative="1" as="geometry" />
        </mxCell>
      </root>
    </mxGraphModel>
  </diagram>
</mxfile>
